<svg width="640" height="360" viewBox="0 0 640 360" fill="none" xmlns="http://www.w3.org/2000/svg">
  <defs>
    <linearGradient id="bg" x1="32" y1="28" x2="608" y2="332" gradientUnits="userSpaceOnUse">
      <stop stop-color="#121A2E"/>
      <stop offset="1" stop-color="#1E3358"/>
    </linearGradient>
    <linearGradient id="bubble" x1="180" y1="140" x2="460" y2="280" gradientUnits="userSpaceOnUse">
      <stop stop-color="#638AFF"/>
      <stop offset="1" stop-color="#32D8C1"/>
    </linearGradient>
  </defs>
  <rect width="640" height="360" rx="24" fill="url(#bg)"/>
  <rect x="80" y="56" width="480" height="248" rx="20" fill="#0B1220" stroke="#33486B"/>
  <rect x="104" y="88" width="200" height="56" rx="14" fill="#15233B"/>
  <rect x="120" y="108" width="120" height="8" rx="4" fill="#425679"/>
  <rect x="120" y="124" width="80" height="8" rx="4" fill="#425679"/>
  <rect x="280" y="160" width="240" height="72" rx="16" fill="url(#bubble)" opacity=".85"/>
  <rect x="300" y="180" width="160" height="8" rx="4" fill="#0B1220" opacity=".35"/>
  <rect x="300" y="200" width="120" height="8" rx="4" fill="#0B1220" opacity=".25"/>
  <rect x="104" y="248" width="360" height="36" rx="18" fill="#121E34" stroke="#32D8C1"/>
  <rect x="124" y="260" width="200" height="12" rx="6" fill="#2A3F5C"/>
  <rect x="456" y="252" width="64" height="28" rx="14" fill="#32D8C1"/>
</svg>
