<svg xmlns="http://www.w3.org/2000/svg" width="800" height="500" viewBox="0 0 800 500">
  <rect width="800" height="500" fill="#f7f7f7"/>
  <rect x="20" y="20" width="760" height="460" rx="8" fill="#ffffff" stroke="#e2e2e2" stroke-width="2"/>
  <text x="40" y="55" font-family="system-ui, sans-serif" font-size="18" font-weight="600" fill="#37352f">API 文档知识库</text>
  <rect x="40" y="70" width="720" height="2" fill="#e2e2e2"/>
  <rect x="40" y="85" width="720" height="40" rx="4" fill="#f7f7f7"/>
  <text x="55" y="100" font-family="system-ui, sans-serif" font-size="12" font-weight="600" fill="#37352f">接口名称</text>
  <text x="220" y="100" font-family="system-ui, sans-serif" font-size="12" font-weight="600" fill="#37352f">使用示例</text>
  <text x="480" y="100" font-family="system-ui, sans-serif" font-size="12" font-weight="600" fill="#37352f">常见错误</text>
  <text x="650" y="100" font-family="system-ui, sans-serif" font-size="12" font-weight="600" fill="#37352f">AI 生成</text>
  <rect x="40" y="130" width="720" height="50" rx="4" fill="#ffffff" stroke="#e2e2e2"/>
  <text x="55" y="150" font-family="system-ui, sans-serif" font-size="12" fill="#37352f">GET /users</text>
  <text x="220" y="150" font-family="system-ui, sans-serif" font-size="11" fill="#6b6b6b">curl -X GET https://api...</text>
  <text x="480" y="150" font-family="system-ui, sans-serif" font-size="11" fill="#6b6b6b">401 Unauthorized...</text>
  <rect x="650" y="140" width="80" height="24" rx="4" fill="#2383e2"/>
  <text x="690" y="157" font-family="system-ui, sans-serif" font-size="11" fill="#ffffff" text-anchor="middle">✓ 已生成</text>
  <rect x="40" y="185" width="720" height="50" rx="4" fill="#ffffff" stroke="#e2e2e2"/>
  <text x="55" y="205" font-family="system-ui, sans-serif" font-size="12" fill="#37352f">POST /orders</text>
  <text x="220" y="205" font-family="system-ui, sans-serif" font-size="11" fill="#6b6b6b">curl -X POST -H "Content...</text>
  <text x="480" y="205" font-family="system-ui, sans-serif" font-size="11" fill="#6b6b6b">400 Bad Request...</text>
  <rect x="650" y="195" width="80" height="24" rx="4" fill="#2383e2"/>
  <text x="690" y="212" font-family="system-ui, sans-serif" font-size="11" fill="#ffffff" text-anchor="middle">✓ 已生成</text>
  <rect x="40" y="240" width="720" height="50" rx="4" fill="#ffffff" stroke="#e2e2e2"/>
  <text x="55" y="260" font-family="system-ui, sans-serif" font-size="12" fill="#37352f">PUT /users/{id}</text>
  <text x="220" y="260" font-family="system-ui, sans-serif" font-size="11" fill="#6b6b6b">curl -X PUT -d '{"name":"...</text>
  <text x="480" y="260" font-family="system-ui, sans-serif" font-size="11" fill="#6b6b6b">404 Not Found...</text>
  <rect x="650" y="250" width="80" height="24" rx="4" fill="#2383e2"/>
  <text x="690" y="267" font-family="system-ui, sans-serif" font-size="11" fill="#ffffff" text-anchor="middle">✓ 已生成</text>
  <rect x="40" y="295" width="720" height="50" rx="4" fill="#f1f1ef" stroke="#e2e2e2"/>
  <text x="55" y="315" font-family="system-ui, sans-serif" font-size="12" fill="#37352f">DELETE /orders/{id}</text>
  <text x="220" y="315" font-family="system-ui, sans-serif" font-size="11" fill="#6b6b6b">✨ AI 正在生成...</text>
  <text x="480" y="315" font-family="system-ui, sans-serif" font-size="11" fill="#6b6b6b">✨ AI 正在生成...</text>
  <rect x="650" y="305" width="80" height="24" rx="4" fill="#f1f1ef" stroke="#2383e2" stroke-width="2"/>
  <text x="690" y="322" font-family="system-ui, sans-serif" font-size="11" fill="#2383e2" text-anchor="middle">生成中...</text>
  <rect x="40" y="370" width="720" height="80" rx="6" fill="#f1f1ef"/>
  <text x="55" y="395" font-family="system-ui, sans-serif" font-size="13" font-weight="500" fill="#37352f">🤖 AI 批量填充</text>
  <text x="55" y="415" font-family="system-ui, sans-serif" font-size="12" fill="#6b6b6b">已选择 20 个条目，Notion AI 正在根据接口定义批量生成「使用示例」</text>
  <text x="55" y="435" font-family="system-ui, sans-serif" font-size="12" fill="#6b6b6b">和「常见错误」字段。预计完成时间：3 分钟。</text>
  <text x="40" y="475" font-family="system-ui, sans-serif" font-size="11" fill="#9ca3af">截图时间：2026-05-20 | Notion Plus + AI 附加订阅 | 20 个 API 接口批量处理</text>
</svg>
